<svg xmlns="http://www.w3.org/2000/svg" width="512" height="512" viewBox="0 0 512 512" fill="none">
  <rect width="512" height="512" rx="128" fill="#0070F3"/>
  <path d="M256 128C183.07 128 124 187.07 124 260C124 332.93 183.07 392 256 392C328.93 392 388 332.93 388 260C388 187.07 328.93 128 256 128ZM256 356C203.07 356 160 312.93 160 260C160 207.07 203.07 164 256 164C308.93 164 352 207.07 352 260C352 312.93 308.93 356 256 356Z" fill="white"/>
  <path d="M256 200C223.49 200 196 227.49 196 260C196 292.51 223.49 320 256 320C288.51 320 316 292.51 316 260C316 227.49 288.51 200 256 200Z" fill="white"/>
</svg>
